<?xml version="1.0" encoding="iso-8859-1"?>
<!-- Generator: Adobe Illustrator 19.0.0, SVG Export Plug-In . SVG Version: 6.00 Build 0)  -->
<svg version="1.1" id="Layer_1" xmlns="http://www.w3.org/2000/svg" xmlns:xlink="http://www.w3.org/1999/xlink" x="0px" y="0px"
	 viewBox="0 0 280.028 280.028" style="enable-background:new 0 0 280.028 280.028;" xml:space="preserve">
<g>
	<path style="fill:#324D5B;" d="M17.502,0h245.024c9.661,0,17.502,7.832,17.502,17.502v245.024c0,9.67-7.841,17.502-17.502,17.502
		H17.502C7.841,280.027,0,272.195,0,262.526V17.502C0,7.841,7.841,0,17.502,0z"/>
	<path style="fill:#CCD0D2;" d="M52.505,175.017h175.017c9.661,0,17.502,7.841,17.502,17.502v87.509H35.003v-87.509
		C35.003,182.858,42.844,175.017,52.505,175.017z"/>
	<path style="fill:#E4E7E7;" d="M52.505,157.515h175.017c9.661,0,17.502,7.841,17.502,17.502v26.253H35.003v-26.253
		C35.003,165.356,42.844,157.515,52.505,157.515z"/>
	<path style="fill:#2B414D;" d="M245.024,0v105.01c0,9.67-7.841,17.502-17.502,17.502H52.505c-9.661,0-17.502-7.832-17.502-17.502V0
		H245.024z"/>
	<path style="fill:#CCD0D2;" d="M122.512,0v96.259c0,4.83,3.92,8.751,8.751,8.751h87.509c4.839,0,8.751-3.92,8.751-8.751V0H122.512z
		 M210.021,78.758c0,4.83-3.912,8.751-8.751,8.751h-8.751c-4.839,0-8.751-3.92-8.751-8.751V26.253c0-4.83,3.912-8.751,8.751-8.751
		h8.751c4.839,0,8.751,3.92,8.751,8.751V78.758z"/>
</g>
<g>
</g>
<g>
</g>
<g>
</g>
<g>
</g>
<g>
</g>
<g>
</g>
<g>
</g>
<g>
</g>
<g>
</g>
<g>
</g>
<g>
</g>
<g>
</g>
<g>
</g>
<g>
</g>
<g>
</g>
</svg>
