<?xml version="1.0" encoding="utf-8"?>
<!-- Generator: Adobe Illustrator 18.1.1, SVG Export Plug-In . SVG Version: 6.00 Build 0)  -->
<svg version="1.2" baseProfile="tiny" xmlns="http://www.w3.org/2000/svg" xmlns:xlink="http://www.w3.org/1999/xlink" x="0px"
	 y="0px" viewBox="0 0 32 32" xml:space="preserve">
<g id="Layer_2" display="none">
	<rect display="inline" width="32" height="32"/>
</g>
<g id="Layer_1">
	<path fill="none" stroke="#FFFFFF" stroke-width="2.5" stroke-miterlimit="10" d="M28.8,30.8H3.3c-1,0-1.9-0.9-1.9-1.9V10.7
		c0-1,0.9-1.9,1.9-1.9h25.5c1,0,1.9,0.9,1.9,1.9v18.3C30.7,30,29.8,30.8,28.8,30.8z"/>
	<path fill="none" stroke="#FFFFFF" stroke-width="2.5" stroke-miterlimit="10" d="M22,8.8V5.7c0-2.4-2.1-4.4-4.6-4.4h-3.1
		c-2.5,0-4.6,2-4.6,4.4v3.1H22z"/>
	<path fill="#FFFFFF" d="M17.6,15.6C17.6,15.6,17.6,15.7,17.6,15.6l-3.9,5.7c-0.6,0-1.3,0.1-1.9,0.3c-0.3,0.1-0.5,0.2-0.7,0.4
		l-8.6-3.5c0,0-0.9,3.4,0,5.8l6.7,2.3c0.3,1.3,1.2,2.5,2.6,3.1c2.3,0.9,4.9-0.1,5.8-2.3c0.2-0.6,0.4-1.2,0.3-1.8l5.6-3.9
		c0,0,0.1,0,0.1,0c3.4,0,6.1-2.7,6.1-6c0-3.3-2.7-6-6.1-6C20.3,9.6,17.6,12.3,17.6,15.6z M16.6,26.9c-0.7,1.7-2.7,2.5-4.5,1.8
		c-0.8-0.3-1.4-0.9-1.8-1.7l1.5,0.7c1.3,0.5,2.8-0.1,3.3-1.3c0.5-1.3-0.1-2.7-1.4-3.2l-1.6-0.7c0.8-0.3,1.7-0.3,2.5,0
		c0.8,0.3,1.5,1,1.8,1.8C17,25.2,17,26.1,16.6,26.9 M23.7,19.6c-2.2,0-4.1-1.8-4.1-4c0-2.2,1.8-4,4.1-4c2.2,0,4.1,1.8,4.1,4
		C27.7,17.8,25.9,19.6,23.7,19.6 M21,15.6c0-1.5,1.2-2.7,2.7-2.7c1.5,0,2.7,1.2,2.7,2.7c0,1.5-1.2,2.7-2.7,2.7
		C22.2,18.2,21,17.1,21,15.6z"/>
</g>
</svg>
